<?xml version="1.0" encoding="utf-8"?>
<!-- Generator: Adobe Illustrator 27.5.0, SVG Export Plug-In . SVG Version: 6.00 Build 0)  -->
<svg version="1.1" id="Layer_1" xmlns="http://www.w3.org/2000/svg" xmlns:xlink="http://www.w3.org/1999/xlink" x="0px" y="0px"
	 viewBox="0 0 500 500" style="enable-background:new 0 0 500 500;" xml:space="preserve">
<style type="text/css">
	.st0{clip-path:url(#SVGID_00000041283453353372296730000000986106256579495819_);}
	.st1{fill:#0FCC75;}
</style>
<g>
	<defs>
		<rect id="SVGID_1_" x="16" y="164.3" width="468" height="171.4"/>
	</defs>
	<clipPath id="SVGID_00000048461978799477615240000002580395768200952971_">
		<use xlink:href="#SVGID_1_"  style="overflow:visible;"/>
	</clipPath>
	<g style="clip-path:url(#SVGID_00000048461978799477615240000002580395768200952971_);">
		<path d="M180.1,240.6c4-1.6,8.6-2.4,13.8-2.4v22.2c-2.2-0.3-4.1-0.4-5.6-0.4c-5.3,0-9.4,1.4-12.4,4.3c-3,2.9-4.5,7.2-4.5,13.1
			v32.3h-24.6v-70.2h23.5v8.4C172.9,244.6,176.1,242.2,180.1,240.6L180.1,240.6z"/>
		<path d="M218.3,306.1c-6.1-3.1-10.8-7.4-14.2-13c-3.4-5.5-5.1-11.8-5.1-18.8s1.7-13.1,5.1-18.7c3.4-5.5,8.1-9.8,14.1-12.9
			c6-3.1,12.8-4.6,20.4-4.6c7.6,0,14.4,1.5,20.5,4.6c6,3.1,10.8,7.3,14.1,12.8c3.4,5.5,5.1,11.7,5.1,18.7s-1.7,13.3-5.1,18.8
			c-3.4,5.5-8.1,9.8-14.1,13c-6.1,3.1-12.9,4.7-20.5,4.7C231.1,310.8,224.4,309.2,218.3,306.1z M249.3,286.8c2.8-3,4.1-7.1,4.1-12.4
			c0-5.3-1.4-9.2-4.1-12.2c-2.8-2.9-6.3-4.4-10.6-4.4c-4.3,0-7.9,1.5-10.6,4.4c-2.8,2.9-4.1,7-4.1,12.2c0,5.2,1.4,9.4,4.1,12.4
			c2.8,3,6.3,4.5,10.6,4.5C243,291.2,246.5,289.7,249.3,286.8z"/>
		<path d="M404.2,239.4l-25,70.2h-23.8l-13.2-38.2l-13.7,38.2h-23.8l-25-70.2h23.3l14.4,42.5l14.9-42.5h21l14.5,42.9l14.9-42.9
			H404.2L404.2,239.4z"/>
		<path class="st1" d="M428.1,269.6l-15.7-4.9l12.5-40.1l-41.1,0.8l-0.3-16.4l63.9-1.2L428.1,269.6z"/>
		<path class="st1" d="M427.6,164.3l-15.6,5.1l8.1,24.7l15.6-5.1L427.6,164.3z"/>
		<path class="st1" d="M462.5,225.4l-9.8,13.2l21.5,15.8l9.8-13.2L462.5,225.4z"/>
		<path class="st1" d="M474.1,179.1l-21.3,15.2l9.5,13.4l21.3-15.2L474.1,179.1z"/>
		<path d="M107.4,239.5v8.5c-4.6-6.5-12-9.7-22-9.7c-6.2,0-11.9,1.4-17.2,4.2c-5.3,2.8-9.4,6.8-12.5,11.9c-3.1,5.1-4.6,11-4.6,17.6
			c0,6.6,1.5,12.6,4.6,17.8c3.1,5.1,7.3,9.1,12.5,11.9c0.7,0.4,1.5,0.8,2.2,1.1c4.6,2.1,9.6,3.1,14.9,3.1c9.1,0,16.1-2.8,20.8-8.3
			v2.3c0,5.6-1.5,9.8-4.5,12.6c-3,2.8-7.7,4.3-14.2,4.3c-4.2,0-8.5-0.7-12.9-2c-3.5-1.1-6.5-2.5-9-4.2l-10,16.3
			c4.1,2.8,9,5,14.7,6.4c6,1.5,12.5,2.3,19.4,2.3c13.3,0,23.4-3.2,30.5-9.8c7.1-6.5,10.6-16.2,10.6-29.2v-57.2L107.4,239.5
			L107.4,239.5z M102.2,282.4c-2.9,2.7-6.5,4-10.9,4c-3.5,0-6.5-0.8-9.1-2.5c-0.7-0.4-1.3-0.9-1.9-1.5c-2.9-2.7-4.4-6.1-4.4-10.3
			c0-4.2,1.4-7.7,4.3-10.3s6.6-3.9,11-3.9s8.1,1.3,11,3.9c2.8,2.6,4.3,6,4.3,10.3C106.5,276.3,105,279.7,102.2,282.4z"/>
		<path d="M38.6,316.5L16,302.6l10.1-16.3l22.6,13.9L38.6,316.5z"/>
	</g>
</g>
</svg>
