<?xml version="1.0" encoding="utf-8"?>
<!-- Generator: Adobe Illustrator 27.5.0, SVG Export Plug-In . SVG Version: 6.00 Build 0)  -->
<svg version="1.1" id="Layer_1" xmlns="http://www.w3.org/2000/svg" xmlns:xlink="http://www.w3.org/1999/xlink" x="0px" y="0px"
	 viewBox="0 0 500 500" style="enable-background:new 0 0 500 500;" xml:space="preserve">
<style type="text/css">
	.st0{fill:#0FCC75;}
</style>
<rect x="243" y="85" class="st0" width="14" height="72"/>
<rect x="178.5" y="102.3" transform="matrix(0.866 -0.5 0.5 0.866 -44.2891 111.2764)" class="st0" width="14" height="72"/>
<rect x="131.3" y="149.5" transform="matrix(0.5 -0.866 0.866 0.5 -91.5063 212.5063)" class="st0" width="14" height="72"/>
<rect x="114" y="214" transform="matrix(4.495521e-11 -1 1 4.495521e-11 -129 371)" class="st0" width="14" height="72"/>
<rect x="131.3" y="278.5" transform="matrix(-0.5 -0.866 0.866 -0.5 -64.9409 591.5063)" class="st0" width="14" height="72"/>
<rect x="178.5" y="325.7" transform="matrix(-0.866 -0.5 0.5 -0.866 165.2891 767.7236)" class="st0" width="14" height="72"/>
<rect x="243" y="343" transform="matrix(-1 -8.990998e-11 8.990998e-11 -1 500 758)" class="st0" width="14" height="72"/>
<rect x="307.5" y="325.7" transform="matrix(-0.866 0.5 -0.5 -0.866 767.7236 517.7236)" class="st0" width="14" height="72"/>
<rect x="354.7" y="278.5" transform="matrix(-0.5 0.866 -0.866 -0.5 814.9409 158.4937)" class="st0" width="14" height="72"/>
<rect x="372" y="214" transform="matrix(-1.347351e-10 1 -1 -1.347351e-10 629 -129)" class="st0" width="14" height="72"/>
<rect x="354.7" y="149.5" transform="matrix(0.5 0.866 -0.866 0.5 341.5063 -220.5063)" class="st0" width="14" height="72"/>
<rect x="307.5" y="102.3" transform="matrix(0.866 0.5 -0.5 0.866 111.2764 -138.7236)" class="st0" width="14" height="72"/>
<g>
	<path class="st0" d="M205.9,229.4V270h-5.2v-40.6H205.9z"/>
	<path class="st0" d="M235.6,268.9c-1.4,0.7-4.5,1.7-8.4,1.7c-8.8,0-14.5-6-14.5-14.9c0-9,6.1-15.5,15.7-15.5c3.1,0,5.9,0.8,7.3,1.5
		l-1.2,4.1c-1.3-0.7-3.2-1.4-6.1-1.4c-6.7,0-10.3,4.9-10.3,11c0,6.7,4.3,10.9,10.1,10.9c3,0,5-0.8,6.5-1.4L235.6,268.9z"/>
	<path class="st0" d="M267.8,255.1c0,10.8-7.5,15.5-14.5,15.5c-7.9,0-14-5.8-14-15c0-9.8,6.4-15.5,14.4-15.5
		C262.2,240.2,267.8,246.2,267.8,255.1z M244.7,255.4c0,6.4,3.7,11.2,8.8,11.2c5.1,0,8.8-4.8,8.8-11.3c0-4.9-2.5-11.2-8.7-11.2
		C247.4,244.1,244.7,249.9,244.7,255.4z"/>
	<path class="st0" d="M274.5,248.7c0-3-0.1-5.5-0.2-7.9h4.7l0.3,4.8h0.1c1.4-2.8,4.8-5.5,9.6-5.5c4,0,10.3,2.4,10.3,12.4V270h-5.3
		v-16.8c0-4.7-1.7-8.6-6.7-8.6c-3.5,0-6.2,2.5-7.1,5.4c-0.2,0.7-0.4,1.6-0.4,2.5V270h-5.3V248.7z"/>
</g>
</svg>
